<svg width="654" height="198" viewBox="0 0 654 198" fill="none" xmlns="http://www.w3.org/2000/svg">
<path d="M2.05 176.1V197.5H0V176.1H2.05Z" fill="white"/>
<path d="M28.5804 176.1L41.0004 194.2H41.0704V176.1H43.0704V197.5H40.8604L28.4004 179.4V197.5H26.4004V176.1H28.5804Z" fill="white"/>
<path d="M68.7297 193.21C69.0583 193.926 69.5686 194.543 70.2097 195C70.8845 195.463 71.6468 195.783 72.4497 195.94C73.3531 196.137 74.2752 196.234 75.1997 196.23C75.807 196.23 76.4118 196.152 76.9997 196C77.659 195.856 78.2883 195.599 78.8597 195.24C79.4195 194.899 79.9001 194.442 80.2697 193.9C80.6693 193.312 80.8724 192.612 80.8497 191.9C80.8682 191.355 80.7256 190.816 80.4397 190.35C80.1858 189.916 79.8454 189.538 79.4397 189.24C78.9923 188.935 78.5086 188.686 77.9997 188.5C77.4797 188.32 76.9997 188.16 76.4797 188.03L71.7097 186.87C71.095 186.707 70.4906 186.506 69.8997 186.27C69.3301 186.027 68.8059 185.689 68.3497 185.27C67.9248 184.853 67.5852 184.357 67.3497 183.81C67.0608 183.135 66.9242 182.404 66.9497 181.67C66.9618 181.053 67.0594 180.441 67.2397 179.85C67.4577 179.108 67.8406 178.424 68.3597 177.85C68.9928 177.172 69.7633 176.637 70.6197 176.28C71.7951 175.812 73.0553 175.594 74.3197 175.64C75.335 175.631 76.3461 175.772 77.3197 176.06C78.2339 176.307 79.0904 176.732 79.8397 177.31C80.5986 177.901 81.2089 178.66 81.6222 179.528C82.0354 180.396 82.24 181.349 82.2197 182.31H80.2197C80.2028 181.564 80.0146 180.832 79.6697 180.17C79.3552 179.579 78.919 179.061 78.3897 178.65C77.8434 178.226 77.2228 177.907 76.5597 177.71C75.8546 177.505 75.124 177.401 74.3897 177.4C73.7174 177.407 73.0474 177.481 72.3897 177.62C71.7811 177.761 71.2021 178.008 70.6797 178.35C70.1858 178.676 69.7804 179.119 69.4997 179.64C69.1883 180.26 69.037 180.947 69.0597 181.64C69.0439 182.089 69.1258 182.536 69.2997 182.95C69.4621 183.331 69.7042 183.672 70.0097 183.95C70.3086 184.211 70.6459 184.423 71.0097 184.58C71.4124 184.74 71.827 184.867 72.2497 184.96L77.4597 186.25C78.19 186.441 78.9053 186.685 79.5997 186.98C80.2005 187.236 80.76 187.58 81.2597 188C81.7759 188.424 82.1867 188.961 82.4597 189.57C82.7778 190.28 82.9317 191.053 82.9097 191.83C82.9011 192.148 82.8744 192.465 82.8297 192.78C82.765 193.219 82.6405 193.646 82.4597 194.05C82.2539 194.54 81.985 195.001 81.6597 195.42C81.2624 195.924 80.7739 196.348 80.2197 196.67C79.5104 197.076 78.7456 197.376 77.9497 197.56C76.8906 197.803 75.8061 197.917 74.7197 197.9C73.5395 197.906 72.3634 197.761 71.2197 197.47C70.2163 197.221 69.2762 196.765 68.4597 196.13C67.6945 195.525 67.0929 194.738 66.7097 193.84C66.2755 192.766 66.0974 191.605 66.1897 190.45H68.1897C68.1389 191.401 68.3244 192.349 68.7297 193.21Z" fill="white"/>
<path d="M115.47 176.1C116.357 176.09 117.239 176.229 118.08 176.51C118.82 176.768 119.501 177.172 120.08 177.7C120.639 178.245 121.076 178.903 121.36 179.63C121.96 181.301 121.96 183.129 121.36 184.8C121.073 185.526 120.637 186.184 120.08 186.73C119.501 187.258 118.82 187.663 118.08 187.92C117.237 188.193 116.356 188.328 115.47 188.32H108V197.5H106V176.1H115.47ZM115 186.59C116.24 186.649 117.461 186.271 118.45 185.52C118.913 185.109 119.274 184.596 119.504 184.022C119.735 183.447 119.83 182.827 119.78 182.21C119.826 181.596 119.73 180.98 119.5 180.41C119.269 179.839 118.91 179.329 118.45 178.92C117.465 178.162 116.242 177.779 115 177.84H108V186.59H115Z" fill="white"/>
<path d="M146.86 176.1V197.5H144.86V176.1H146.86Z" fill="white"/>
<path d="M181 176.1C181.845 176.096 182.686 176.207 183.5 176.43C184.242 176.634 184.941 176.973 185.56 177.43C186.16 177.896 186.643 178.495 186.97 179.18C187.333 179.959 187.511 180.811 187.49 181.67C187.521 182.931 187.154 184.17 186.44 185.21C186.076 185.718 185.614 186.148 185.082 186.476C184.55 186.804 183.958 187.023 183.34 187.12V187.19C183.947 187.253 184.533 187.444 185.06 187.75C185.507 187.994 185.893 188.336 186.19 188.75C186.495 189.187 186.709 189.68 186.82 190.2C186.931 190.794 186.992 191.396 187 192C187 192.35 187 192.79 187.07 193.31C187.14 193.83 187.07 194.31 187.18 194.89C187.243 195.393 187.34 195.891 187.47 196.38C187.567 196.779 187.744 197.153 187.99 197.48H185.74C185.61 197.25 185.518 197 185.47 196.74C185.398 196.448 185.348 196.15 185.32 195.85C185.32 195.54 185.26 195.22 185.25 194.92C185.24 194.62 185.19 194.36 185.18 194.16C185.18 193.39 185.07 192.64 184.99 191.89C184.908 191.197 184.716 190.522 184.42 189.89C184.134 189.31 183.695 188.819 183.15 188.47C182.465 188.079 181.676 187.907 180.89 187.98H173.2V197.49H171.2V176.1H181ZM180.84 186.26C181.446 186.266 182.048 186.167 182.62 185.97C183.158 185.8 183.655 185.521 184.08 185.15C184.5 184.791 184.84 184.348 185.08 183.85C185.342 183.305 185.469 182.705 185.45 182.1C185.485 181.53 185.401 180.958 185.205 180.421C185.009 179.885 184.704 179.394 184.31 178.98C183.837 178.568 183.287 178.254 182.691 178.059C182.095 177.863 181.465 177.788 180.84 177.84H173.2V186.26H180.84Z" fill="white"/>
<path d="M225.75 176.1V177.84H213V185.58H224.93V187.3H213V195.76H225.9V197.5H211V176.1H225.75Z" fill="white"/>
<path d="M256 176.1C259.26 176.18 261.7 177.1 263.35 178.85C265 180.6 265.82 183.25 265.82 186.79C265.82 190.33 265 193.01 263.35 194.79C261.7 196.57 259.26 197.45 256 197.53H248.6V176.1H256ZM255 195.76C256.35 195.793 257.698 195.624 259 195.26C260.049 194.993 261.007 194.446 261.771 193.679C262.535 192.911 263.077 191.951 263.34 190.9C264.006 188.204 264.006 185.386 263.34 182.69C263.05 181.642 262.503 180.683 261.75 179.9C260.979 179.157 260.033 178.62 259 178.34C257.697 177.981 256.35 177.813 255 177.84H250.65V195.76H255Z" fill="white"/>
<path d="M320 176.1L327.11 194.86L334.47 176.1H337.47V197.5H335.47V179H335.42L328.1 197.5H326.19L319.19 179.01H319.12V197.5H317.12V176.1H320Z" fill="white"/>
<path d="M376.31 176.1V177.84H363.58V185.58H375.5V187.3H363.58V195.76H376.46V197.5H361.53V176.1H376.31Z" fill="white"/>
<path d="M406.54 176.1C409.793 176.18 412.247 177.097 413.9 178.85C415.55 180.59 416.36 183.25 416.36 186.79C416.36 190.33 415.55 193.01 413.9 194.79C412.25 196.57 409.79 197.45 406.54 197.53H399.13V176.1H406.54ZM405.54 195.76C406.891 195.792 408.239 195.623 409.54 195.26C410.586 194.99 411.539 194.442 412.3 193.674C413.06 192.907 413.599 191.948 413.86 190.9C414.553 188.207 414.553 185.383 413.86 182.69C413.578 181.641 413.034 180.681 412.28 179.9C411.513 179.157 410.57 178.62 409.54 178.34C408.238 177.982 406.89 177.814 405.54 177.84H401.19V195.76H405.54Z" fill="white"/>
<path d="M439.13 188.39H446.62V190.12H439.13V188.39Z" fill="white"/>
<path d="M485.07 176.1V177.84H477.6V197.5H475.6V177.84H468.18V176.1H485.07Z" fill="white"/>
<path d="M521.67 176.1V177.84H508.94V185.58H520.86V187.3H508.94V195.76H521.83V197.5H506.91V176.1H521.67Z" fill="white"/>
<path d="M559.27 180.38C558.868 179.745 558.353 179.189 557.75 178.74C557.168 178.3 556.516 177.962 555.82 177.74C555.096 177.508 554.341 177.389 553.58 177.39C552.315 177.355 551.061 177.633 549.93 178.2C548.943 178.712 548.088 179.444 547.43 180.34C546.774 181.247 546.283 182.263 545.98 183.34C545.367 185.589 545.367 187.961 545.98 190.21C546.284 191.288 546.775 192.303 547.43 193.21C548.085 194.106 548.942 194.836 549.93 195.34C551.059 195.916 552.314 196.198 553.58 196.16C554.509 196.172 555.43 195.984 556.28 195.61C557.063 195.271 557.768 194.774 558.35 194.15C558.941 193.509 559.418 192.772 559.76 191.97C560.124 191.121 560.354 190.22 560.44 189.3H562.44C562.33 190.529 562.019 191.732 561.52 192.86C561.08 193.867 560.452 194.78 559.67 195.55C558.9 196.301 557.985 196.886 556.98 197.27C555.884 197.681 554.721 197.881 553.55 197.86C552.028 197.89 550.518 197.579 549.13 196.95C547.908 196.379 546.828 195.542 545.97 194.5C545.115 193.459 544.472 192.26 544.08 190.97C543.24 188.216 543.24 185.274 544.08 182.52C544.486 181.233 545.138 180.038 546 179C546.858 177.956 547.937 177.115 549.16 176.54C551.495 175.517 554.115 175.351 556.56 176.07C557.511 176.356 558.405 176.807 559.2 177.4C559.998 177.995 560.676 178.734 561.2 179.58C561.752 180.494 562.094 181.518 562.2 182.58H560.2C560.012 181.801 559.698 181.058 559.27 180.38Z" fill="white"/>
<path d="M587.47 176.1V185.4H600.17V176.1H602.17V197.5H600.17V187.12H587.47V197.5H585.47V176.1H587.47Z" fill="white"/>
<path d="M201.22 104C200.9 103.57 200.55 103.15 200.22 102.75L123 9.50027L122.73 9.18027C119.474 5.27617 115.13 2.4288 110.25 1.00027C107.92 0.325769 105.506 -0.0109946 103.08 0.000273668C99.1156 -0.00324305 95.2041 0.913445 91.6538 2.67819C88.1035 4.44294 85.0112 7.00758 82.6203 10.1703L6.24029 102.72C5.88029 103.12 5.54029 103.54 5.24029 103.97C2.37988 107.667 0.612947 112.091 0.140034 116.741C-0.332878 121.391 0.507171 126.08 2.56484 130.277C4.6225 134.473 7.81537 138.009 11.7811 140.482C15.7467 142.956 20.3264 144.268 25.0003 144.27H70.5003C74.8572 144.27 79.1603 143.308 83.1018 141.451C87.0433 139.594 90.5258 136.89 93.3003 133.53L110.53 112.65C111.25 111.779 112.152 111.078 113.174 110.595C114.195 110.113 115.311 109.862 116.44 109.86H151.83C152.234 109.858 152.622 109.706 152.921 109.435C153.22 109.164 153.408 108.792 153.45 108.39C153.481 108.167 153.463 107.939 153.397 107.724C153.332 107.508 153.22 107.309 153.07 107.14C149.67 102.98 144.63 96.9103 141.64 93.3103C140.721 92.3246 139.598 91.551 138.349 91.0432C137.101 90.5355 135.757 90.3059 134.41 90.3703H110.63C108.445 90.3705 106.286 90.8549 104.31 91.7885C102.333 92.7222 100.589 94.082 99.2003 95.7703L78.2703 121.12C77.3245 122.267 76.1362 123.19 74.791 123.823C73.4457 124.456 71.977 124.783 70.4903 124.78H23.9203C22.9703 124.782 22.0395 124.513 21.2368 124.005C20.434 123.497 19.7926 122.771 19.3876 121.912C18.9826 121.053 18.8308 120.096 18.9499 119.153C19.0691 118.211 19.4542 117.322 20.0603 116.59L36.3003 96.9103L82.4803 41.0003L97.8103 22.3903C98.452 21.6111 99.2582 20.9835 100.171 20.5527C101.084 20.1219 102.081 19.8985 103.09 19.8985C104.1 19.8985 105.097 20.1219 106.01 20.5527C106.922 20.9835 107.729 21.6111 108.37 22.3903L171.89 99.0603L186.37 116.59C186.976 117.322 187.362 118.211 187.481 119.153C187.6 120.096 187.448 121.053 187.043 121.912C186.638 122.771 185.997 123.497 185.194 124.005C184.391 124.513 183.46 124.782 182.51 124.78H129.51C128.294 124.78 127.095 125.06 126.004 125.597C124.913 126.135 123.961 126.916 123.22 127.88L113.69 140.31C113.395 140.677 113.212 141.121 113.162 141.59C113.111 142.058 113.197 142.531 113.407 142.952C113.618 143.373 113.945 143.725 114.35 143.966C114.754 144.207 115.22 144.326 115.69 144.31H181.53C186.2 144.297 190.772 142.975 194.73 140.496C198.687 138.017 201.871 134.479 203.92 130.283C205.97 126.087 206.803 121.401 206.326 116.756C205.849 112.111 204.08 107.692 201.22 104Z" fill="#00B6BC"/>
<path d="M331 124.82C329.34 121.14 327.78 117.51 326.3 113.96C324.82 110.41 323.3 106.77 321.75 103.09H275.65L266.39 124.82H251.52C255.426 115.82 259.093 107.487 262.52 99.8205C265.946 92.1538 269.3 84.8938 272.58 78.0405C275.86 71.1605 279.116 64.5938 282.35 58.3405C285.583 52.0872 288.96 45.8905 292.48 39.7505H305.55C309.076 45.8772 312.453 52.0738 315.68 58.3405C318.906 64.6072 322.16 71.1738 325.44 78.0405C328.733 84.9138 332.09 92.1738 335.51 99.8205C338.93 107.467 342.596 115.8 346.51 124.82H331ZM317.6 93.2805C314.473 86.1605 311.366 79.2672 308.28 72.6005C305.193 65.9338 301.986 59.5305 298.66 53.3905C295.226 59.5305 291.97 65.9338 288.89 72.6005C285.81 79.2672 282.75 86.1605 279.71 93.2805H317.6Z" fill="white"/>
<path d="M464 39.7705H478.24V124.771H464V39.7705Z" fill="white"/>
<path d="M502.12 82.2305C501.979 75.4067 503.345 68.6359 506.12 62.4005C508.639 56.8699 512.355 51.9684 517 48.0505C521.718 44.1505 527.153 41.2118 533 39.4005C539.288 37.4317 545.842 36.45 552.43 36.4905C558.917 36.4503 565.369 37.4324 571.55 39.4005C577.334 41.219 582.702 44.1582 587.35 48.0505C591.976 51.9802 595.68 56.8793 598.2 62.4005C600.976 68.6359 602.341 75.4067 602.2 82.2305C602.34 89.0573 600.975 95.8312 598.2 102.07C595.694 107.586 592.003 112.482 587.39 116.41C582.746 120.31 577.376 123.254 571.59 125.07C565.409 127.04 558.958 128.029 552.47 128C545.868 128.034 539.3 127.046 533 125.07C527.151 123.26 521.715 120.317 517 116.41C512.352 112.5 508.635 107.6 506.12 102.07C503.346 95.8312 501.98 89.0573 502.12 82.2305ZM517.12 82.2305C517.056 87.2144 517.886 92.1695 519.57 96.8605C521.08 101.044 523.466 104.856 526.57 108.04C529.677 111.177 533.431 113.597 537.57 115.13C542.243 116.849 547.192 117.693 552.17 117.62C557.126 117.7 562.054 116.855 566.7 115.13C570.811 113.568 574.536 111.136 577.62 108C580.721 104.813 583.107 101.002 584.62 96.8205C586.272 92.1365 587.077 87.1964 587 82.2305C587.061 77.2477 586.235 72.2938 584.56 67.6005C583.042 63.4214 580.657 59.6112 577.56 56.4205C574.466 53.3045 570.739 50.89 566.63 49.3405C561.985 47.6074 557.057 46.7595 552.1 46.8405C547.121 46.766 542.171 47.6136 537.5 49.3405C533.363 50.8745 529.61 53.2904 526.5 56.4205C523.4 59.6085 521.014 63.4195 519.5 67.6005C517.851 72.2981 517.055 77.2527 517.15 82.2305H517.12Z" fill="white"/>
<path d="M414.17 73.3205L441.26 39.7705H424.96L406.11 63.8205L414.17 73.3205Z" fill="white"/>
<path d="M427.31 102.601C421.44 95.0805 415.01 87.2305 408.31 79.3405C399.87 69.3405 374.31 39.7705 374.31 39.7705H358.58L391.7 79.2905C385.14 87.1505 378.43 95.4005 372.61 102.851C367.078 109.885 361.953 117.23 357.26 124.851H373C374.47 122.391 376.26 119.681 378.37 116.691C380.48 113.701 382.72 110.591 385.12 107.361C387.52 104.131 390.04 100.901 392.68 97.6605C395.32 94.4205 397.87 91.3905 400.32 88.5205C402.773 91.3938 405.316 94.4405 407.95 97.6605C410.583 100.881 413.13 104.114 415.59 107.361C418.043 110.594 420.296 113.704 422.35 116.691C424.41 119.691 426.16 122.391 427.63 124.851H443.63C439.11 117.541 433.18 110.131 427.31 102.601Z" fill="white"/>
<path d="M616.849 18.8305C616.801 13.8944 618.712 9.14062 622.163 5.61097C625.614 2.08133 630.324 0.063778 635.26 0.000488281C645.37 0.000488281 653.57 8.48049 653.57 18.8305C653.57 29.1805 645.37 37.7305 635.26 37.7305C632.809 37.7005 630.389 37.1876 628.137 36.2211C625.885 35.2547 623.845 33.8536 622.135 32.0981C620.425 30.3427 619.078 28.2672 618.171 25.9906C617.264 23.714 616.815 21.2809 616.849 18.8305ZM651.31 18.8305C651.386 16.6711 651.026 14.5185 650.252 12.5011C649.479 10.4837 648.306 8.64283 646.806 7.08828C645.305 5.53373 643.507 4.29736 641.518 3.45293C639.529 2.6085 637.39 2.1733 635.229 2.1733C633.069 2.1733 630.93 2.6085 628.941 3.45293C626.952 4.29736 625.154 5.53373 623.653 7.08828C622.153 8.64283 620.98 10.4837 620.207 12.5011C619.433 14.5185 619.073 16.6711 619.15 18.8305C619.111 20.9818 619.498 23.1196 620.287 25.1212C621.077 27.1228 622.254 28.9489 623.75 30.4948C625.247 32.0407 627.034 33.276 629.009 34.1298C630.984 34.9836 633.108 35.4392 635.26 35.4705C644.13 35.4705 651.31 28.0005 651.31 18.8305ZM644.37 29.3805H641.37L635.52 19.6505H630.919V29.3805H628.43V8.30049H637.34C639.067 8.15053 640.802 8.49748 642.34 9.30049C643.08 9.80214 643.68 10.4839 644.084 11.2817C644.489 12.0794 644.683 12.9669 644.65 13.8605C644.65 17.9805 641.809 19.5205 638.169 19.6105L644.37 29.3805ZM634.77 17.6405C637.66 17.6405 642.12 18.1205 642.12 13.8605C642.12 10.6005 639.34 10.2005 636.78 10.2005H630.94V17.6405H634.77Z" fill="white"/>
</svg>
