<svg xmlns="http://www.w3.org/2000/svg" viewBox="0 0 1691.46 554.73"><defs><style>.cls-1{opacity:0.46;}.cls-2{fill:none;stroke:#ad8f6c;stroke-miterlimit:10;}</style></defs><g id="Layer_2" data-name="Layer 2"><g id="Layer_1-2" data-name="Layer 1"><g class="cls-1"><path class="cls-2" d="M1691,317.92c-5.2,43.14-165,80.08-224.92,71.25s-114.19-37.29-169.13-60.85-118.8-43.33-174-32c-70.61,14.48-104.18,75.11-176.07,87.25-56,9.47-118-14-163.49-43.92-25.69-16.89-45.18-39.09-69.11-57.28C605.64,199.9,628.06,95.43,527.63,52.64,419,6.34,345.43,29.41,315.75,51c-37.93,27.68-111.06,106.1-17.65,198.43,38,37.44,74.81,76.54,98.27,119,35.11,63.53-1.53,140.84-78.32,165.52-52.62,17-272.28,17-313.21,45.68" transform="translate(0 -25.26)"/><path class="cls-2" d="M1689,315.17c-7.78,43.77-167.78,82.57-229.73,74.21-60.42-8.18-115.7-36.82-170.39-61.26-54-24.15-115.95-44.91-170.31-35.7-69.52,11.8-105.11,68.36-176.73,80.17-57,9.29-118.85-11.44-166.19-39.56-27.13-16.15-48.94-38-74.12-56.67C594.73,197.18,614.57,95.61,516.33,53.62,410.67,8.49,338.12,29.53,307.76,50.47c-38.49,26.56-108.45,102.22-21,192.14,36.06,37.1,71.11,76.24,94.09,118.31,34,62-1,136.7-74.06,162C256.23,540.49,46.53,538,5.86,566.3" transform="translate(0 -25.26)"/><path class="cls-2" d="M1687,312.37c-10.41,44.39-170.63,85.11-234.58,77.18-61-7.57-117.21-36.32-171.64-61.65-53.15-24.73-113-46.46-166.57-39.41-68.45,9.11-106,61.74-177.48,73.06-58,9.16-119.71-8.83-168.73-35.16-28.66-15.37-52.72-36.85-79.15-56-104.74-76-87.74-174.59-183.76-215.73C402.54,10.73,331,29.75,299.88,50c-38.94,25.4-105.87,98.39-24.37,186,34.17,36.63,67.4,75.82,89.9,117.56C398.28,414,364.88,486.15,295.48,512c-48.49,18.11-249.74,15.2-290.13,43" transform="translate(0 -25.26)"/><path class="cls-2" d="M1685,309.69c-13,44.94-173.39,87.52-239.37,80-61.49-7-118.69-35.8-172.88-62-52.26-25.3-110-48-162.85-43.11-67.36,6.4-106.9,55-178.22,66-59,9-120.61-6.24-171.35-30.82-30.18-14.63-56.45-35.75-84.16-55.4-102.7-72.9-88.53-168.41-182.32-208.8-99.47-42.71-170-25.69-201.86-6.08-39.4,24.31-103.32,94.64-27.75,179.77,32.3,36.37,63.52,75.63,85.72,117,31.51,58.81-.08,128.49-65.7,154.91C237.81,519.84,48.14,510.91,7.9,538.21" transform="translate(0 -25.26)"/><path class="cls-2" d="M1683,307c-15.55,45.54-176.2,90-244.19,82.95-62-6.39-120.24-35.29-174.15-62.46-51.4-25.87-107.14-49.6-159.08-46.8-66.32,3.71-107.81,48.34-179,58.86-60,8.9-121.6-3.55-174-26.42-31.76-13.87-60.2-34.6-89.19-54.8C563,188.43,574.13,96.08,482.57,56.52,386.2,15,316.68,30,284.07,49,244.24,72.13,183.24,139.9,253,222.52c30.41,36,59.76,75.3,81.52,116.31,30.34,57.25.4,124.46-61.49,151.38C228.6,509.53,50.43,500.63,10.45,527.49" transform="translate(0 -25.26)"/><path class="cls-2" d="M1681,304.23c-18.16,46.14-179,92.46-249,85.88-62.5-5.82-121.74-34.77-175.4-62.85-50.44-26.41-104.17-51.23-155.35-50.52-65.24.92-108.71,41.63-179.7,51.76-61,8.63-122.52-1-176.52-22.07-33.35-13.08-63.9-33.49-94.2-54.13C552.54,185.39,560.62,96.23,471.28,57.47c-93.29-40.3-161.8-27.27-195.19-9-40.27,22.09-98.41,87.3-34.49,167.32,28.54,35.72,56,75,77.32,115.63,29.17,55.68.86,120.52-57.28,147.86C219.27,499.22,47,489,7.22,515.4" transform="translate(0 -25.26)"/><path class="cls-2" d="M1679,301.47c-20.74,46.72-181.8,94.82-253.83,88.79C1362.2,385,1301.93,356,1248.56,327c-49.56-26.94-101.26-52.81-151.64-54.16-64.19-1.81-109.64,34.9-180.43,44.64a383.34,383.34,0,0,1-179.22-17.66c-34.88-12.3-67.67-32.38-99.2-53.54C542.3,182.29,547.13,96.38,460,58.43,369.82,19.34,302.33,30.37,268.23,48c-40.67,21-96,83.74-37.91,161.1a825.67,825.67,0,0,1,73.1,115c28.1,54.12,1.39,116.5-53.06,144.33C210,489,49.12,477.55,9.63,503.49" transform="translate(0 -25.26)"/><path class="cls-2" d="M1677.06,298.72c-23.32,47.33-184.6,97.23-258.66,91.77-63.5-4.73-124.79-33.69-177.89-63.66-48.7-27.49-98.3-54.4-147.89-57.94-63.07-4.49-110.57,28.19-181.18,37.58-63.19,8.38-124.76,4.59-181.84-13.29C693,281.72,658.28,261.9,625.29,240.31,532,179.2,533.53,96.57,448.66,59.43c-87-37.92-153.5-28.93-188.34-12-41.14,19.91-93.69,80.26-41.2,154.89A964.89,964.89,0,0,1,288,316.6c26.86,52.53,1.89,112.59-48.85,140.8-38.29,21.34-189,7.88-228.21,33.32" transform="translate(0 -25.26)"/><path class="cls-2" d="M1675.07,296c-25.9,47.93-187.42,99.63-263.46,94.64-64-4.21-126.32-33.13-179.14-64.06-47.81-28-95.39-56-144.21-61.63-62-7.22-111.49,21.44-181.91,30.44-64.16,8.16-125.81,7.38-184.41-8.89-38.25-10.64-75-30.14-109.29-52.22C521.93,175.91,520.12,96.71,437.48,60.39c-84-36.68-149.37-29.62-185-13.39C211,65.86,161,123.87,207.87,195.68a1197,1197,0,0,1,64.67,113.58c25.69,51,2.37,108.72-44.64,137.27C191.68,468.54,46.37,456,7.39,481" transform="translate(0 -25.26)"/><path class="cls-2" d="M1673.16,293.25c-28.6,48.56-190.3,102-268.37,97.6-64.49-3.69-127.86-32.57-180.35-64.46-46.92-28.48-92.46-57.53-140.44-65.33-60.88-9.89-112.42,14.72-182.64,23.35-65.3,8-127,10.17-187.08-4.55C674.37,270,635.62,250.67,600,228.25c-88.1-55.61-93.35-131.38-173.8-166.9C345.33,25.88,281,31,244.54,46.5,202.7,64.32,155.16,120,196.59,189c21,34.83,41,73.71,60.51,113,24.56,49.36,3,104.9-40.44,133.72C182.44,458.38,46.6,444.16,7.9,468.77" transform="translate(0 -25.26)"/><path class="cls-2" d="M1671.1,290.5C1640,339.62,1478.08,394.88,1398,391c-65-3.18-129.39-32-181.64-64.85-46.09-29-89.49-59.11-136.69-69-59.82-12.6-113.37,8-183.39,16.24-66.31,7.82-128.09,13-189.7-.16-41.56-8.88-82.29-28-119.33-50.92C501.82,169.36,493.1,97.06,414.87,62.34c-77.79-34.26-141-31.12-178.33-16.3-42.17,16.75-87.4,70.25-51.31,136.23,19,34.69,37.28,73.4,56.33,112.29,23.42,47.79,3.53,101.12-36.24,130.2-32.16,23.52-161,10.91-199.46,35.07" transform="translate(0 -25.26)"/><path class="cls-2" d="M1669.12,287.75c-33.68,49.73-195.83,106.75-277.94,103.46-65.5-2.69-131-31.43-182.88-65.27-45.25-29.48-86.6-60.66-133-72.74-58.71-15.28-114.29,1.22-184.12,9.14C823.86,270,762,278.2,698.88,266.55c-43.25-8-85.89-27.05-124.33-50.39-82.68-50.25-94.93-119-170.95-152.94-74.68-33-136.86-31.86-175-17.76-42.59,15.7-85.57,67.07-54.66,130,17,34.55,33.5,73.06,52.13,111.61,22.3,46.26,4.13,97.45-32.05,126.71C164,438.09,44.78,424.38,6.62,448.09" transform="translate(0 -25.26)"/><path class="cls-2" d="M1667.13,285c-36.24,50.34-198.62,109.1-282.74,106.33-65.93-2.17-132.53-30.83-184.13-65.67-44.41-30-83.64-62.24-129.23-76.44-57.62-18-115.23-5.53-184.87,2-68.39,7.44-130.32,18.78-194.94,8.6-44.87-7.07-89.53-26-129.3-49.7-80-47.66-95.68-113-169.55-146C320.86,32.26,259.76,31.63,220.79,45c-42.85,14.71-84,63.91-58,123.8,14.91,34.52,29.88,72.78,48,111,21.16,44.62,4.82,93.73-27.87,123.13-27.92,25.18-138.6,10.7-176.48,34" transform="translate(0 -25.26)"/><path class="cls-2" d="M1665.14,282.27c-38.87,50.92-201.47,111.44-287.56,109.24-66.5-1.73-134.11-30.23-185.41-66.06-43.59-30.46-80.68-63.79-125.5-80.17-56.54-20.65-116.16-12.27-185.6-5.05s-131.43,21.68-197.57,13c-46.52-6.13-93.11-24.95-134.38-49.07C472.06,159,452.65,97.31,381,65.14,312.58,34.4,252.54,31.83,212.79,44.44,169.6,58.13,130.37,105.29,151.37,162c12.75,34.47,26.12,72.44,43.75,110.29,20.08,43,5.63,90.11-23.59,119.62C145.74,418,46,406.34,8.41,429.19" transform="translate(0 -25.26)"/><path class="cls-2" d="M1663.16,279.53c-41.4,51.52-204.24,113.77-292.32,112.17-67-1.23-135.69-29.62-186.62-66.45-42.76-30.93-77.78-65.36-121.76-83.86-55.46-23.34-117.12-19.06-186.33-12.21-70.54,7-132.53,24.61-200.18,17.34-48.16-5.18-96.64-24-139.41-48.45-74.26-42.54-97.33-100.64-166.71-132-65.3-29.51-124.24-34-164.86-22.16-43.47,12.71-81.1,57.78-64.77,111.38,10.41,34.46,22.35,72.12,39.48,109.65,19,41.44,6.36,86.52-19.42,116.07C127.9,406,52.58,402.89,15.05,417.7" transform="translate(0 -25.26)"/><path class="cls-2" d="M1661.17,276.79c-44.06,52.12-207.08,116.1-297.23,115.13-67.54-.7-137.28-29-187.86-66.86-41.95-31.38-74.85-66.9-118-87.56-54.36-26-118-25.81-187.07-19.25C799.42,225,737.36,245.81,668.15,240c-49.78-4.2-100.17-23-144.4-47.82-71.39-40-98.09-94.44-165.29-125-62.23-28.3-120-34.7-161.5-23.61-43.79,11.71-80,54.71-68.15,105.17,8.14,34.43,18.72,71.79,35.37,109C182,297.48,171.44,340.56,149,370.17,127.74,398.11,48.44,388,11.48,410" transform="translate(0 -25.26)"/><path class="cls-2" d="M1659.19,274c-46.64,52.71-209.89,118.38-302,118-68-.28-138.91-28.37-189.13-67.25-41.13-31.84-71.87-68.45-114.29-91.26-53.3-28.69-119-32.6-187.81-26.37-72.62,6.57-134.67,30.54-205.43,26.09-51.41-3.21-103.69-22.09-149.44-47.18-68.5-37.6-98.89-88.28-163.86-118C288.06,40.93,231.38,32.64,189.06,43,145,53.64,109.91,94.6,117.54,141.88c5.56,34.38,15,71.47,31.19,108.28,16.78,38.24,8.27,79.45-11,109C118.9,388.09,48.19,376.72,11.48,398.3" transform="translate(0 -25.26)"/><path class="cls-2" d="M1657.2,271.3C1608,324.61,1444.49,392,1350.35,392.21c-68.48.19-140.56-27.69-190.37-67.65-40.35-32.31-69-70-110.55-95-52.29-31.29-119.94-39.36-188.58-33.46-73.66,6.35-135.71,33.52-208.05,30.52-53-2.22-107.17-21.23-154.46-46.56C432.76,145,398.6,98.07,335.91,69,279.81,43.23,224.3,33,181.14,42.49c-44.44,9.79-78.5,48.54-74.89,92.72,2.86,35.9,11.94,72,27,107.56,15.71,36.67,9.29,75.93-6.78,105.42-16.31,29.94-78,19.26-114.48,40.41" transform="translate(0 -25.26)"/><path class="cls-2" d="M1655.22,268.56c-51.88,53.89-215.55,123-311.67,123.83-69.08.62-142.17-27.12-191.63-68.06-39.55-32.76-66.12-71.53-106.8-98.69-51.21-34-120.89-46.16-189.39-40.59C781,191.17,719,221.56,645.08,219.89,590.45,218.66,534.47,199.5,485.6,174,422.93,141.24,385,98.13,324.57,69.89c-53-24.59-107.33-36.69-151.41-28-44.72,8.85-78,45.34-78.25,86.5.13,35.51,7.82,71.59,22.8,107,14.65,35.07,10.46,72.42-2.6,101.94-13.68,31-70,18.84-106.19,39.57" transform="translate(0 -25.26)"/><path class="cls-2" d="M1653.23,265.81c-54.42,54.52-218.39,125.32-316.49,126.76-69.6,1.06-143.84-26.48-192.87-68.45-38.79-33.23-63.2-73.11-103.09-102.39-50.13-36.71-121.86-53-190-47.66-75.81,5.76-137.75,39.5-213.28,39.22-56.21-.22-114-19.62-164.5-45.3-59.73-30.37-101.34-69.66-159.59-97.1-49.9-23.37-103.16-37.34-148-29.46s-77.72,42-81.59,80.23c-3.45,34,4.06,70.44,18.59,106.28,13.6,33.47,11.71,68.88,1.61,98.39-10.92,32-60.19,18.87-96,39.29" transform="translate(0 -25.26)"/><path class="cls-2" d="M1651.24,263.08c-57,55.07-221.23,127.43-321.3,129.67-70.14,1.43-145.51-25.85-194.12-68.86-38-33.65-60.27-74.7-99.39-106.09C987.36,178.41,913.64,158,845.64,163c-76.86,5.56-138.77,42.53-215.89,43.6C572,207.43,512.37,187.7,460.22,162c-56.81-28-102.17-63.44-158.17-90.11-46.8-22.18-98.93-38-144.69-30.92-45.34,7-77.63,38.54-85,74.06-7,33.6.54,70.17,14.44,105.65,12.6,31.89,13,65.33,5.81,94.88-8.08,33-52.76,20.46-88.29,40.39" transform="translate(0 -25.26)"/><path class="cls-2" d="M1649.26,260.33c-59.58,55.7-224,129.8-326.21,132.58-70.64,1.93-147.2-25.21-195.36-69.27-37.29-34.11-57.36-76.23-95.64-109.79-48-42.07-123.74-66.48-191.52-61.87-77.91,5.37-139.78,45.55-218.52,48-59.37,1.84-120.67-18.31-174.55-44.05S344.49,98.6,290.7,72.79C247.07,51.85,196,34.2,149.4,40.41,103.74,46.47,71.8,75.21,61,108.25s-3.19,69.85,10.22,105a179.76,179.76,0,0,1,10,91.34c-5.07,34-45.79,22.18-81.07,41.67" transform="translate(0 -25.26)"/></g></g></g></svg>