<svg width="30" height="25" viewBox="0 0 30 25" fill="none" xmlns="http://www.w3.org/2000/svg">
<path d="M29.1573 3.74652C28.0912 4.22028 26.9632 4.5324 25.809 4.67302C27.022 3.94658 27.9342 2.7925 28.3746 1.42722C27.2277 2.11307 25.9751 2.5943 24.6704 2.85029C24.1209 2.2614 23.4602 1.79292 22.7282 1.47333C21.9963 1.15374 21.2084 0.989717 20.4125 0.991221C17.1903 0.991221 14.5827 3.61935 14.5827 6.85909C14.5804 7.30972 14.6309 7.75902 14.7331 8.19738C12.4225 8.08659 10.16 7.48377 8.09025 6.42748C6.02052 5.37119 4.18917 3.88468 2.71336 2.06306C2.19561 2.95573 1.9218 3.97423 1.92054 5.01213C1.92054 7.04681 2.95849 8.84532 4.52579 9.899C3.59721 9.87646 2.68766 9.6251 1.87435 9.16627V9.23894C1.87435 12.0851 3.88751 14.4528 6.55197 14.9917C6.05093 15.1284 5.5346 15.1976 5.01606 15.1976C4.64811 15.1983 4.281 15.1618 3.92007 15.0886C4.66079 17.42 6.81665 19.1156 9.37039 19.1641C7.29529 20.7996 4.74761 21.6836 2.12777 21.6771C1.66274 21.6764 1.19815 21.6481 0.736328 21.5923C3.40149 23.3329 6.49954 24.2535 9.66171 24.2447C20.4001 24.2447 26.2667 15.3006 26.2667 7.54337C26.2667 7.28904 26.2602 7.0347 26.2483 6.78642C27.387 5.95805 28.3721 4.92863 29.1573 3.74652Z" fill="#AD8F6C"/>
</svg>
